<svg id="svg" version="1.1" xmlns="http://www.w3.org/2000/svg" xmlns:xlink="http://www.w3.org/1999/xlink" width="400" height="266.6666666666667" viewBox="0, 0, 400,266.6666666666667"><g id="svgg"><path id="path0" d="M246.250 96.168 C 244.751 97.163,240.395 98.668,238.079 98.990 C 236.111 99.264,235.310 99.100,234.278 98.213 C 231.911 96.179,230.987 96.129,230.328 98.000 C 230.086 98.688,229.616 99.836,229.284 100.551 L 228.679 101.853 229.548 101.068 C 230.026 100.636,230.883 100.063,231.452 99.795 L 232.487 99.308 233.760 99.591 C 237.427 100.407,243.206 98.879,246.433 96.241 C 247.025 95.757,246.927 95.718,246.250 96.168 M151.833 96.750 C 151.833 96.907,153.609 97.978,155.113 98.729 C 158.396 100.369,161.214 100.889,164.248 100.413 C 166.554 100.052,166.995 100.167,168.694 101.567 L 169.780 102.463 168.990 100.690 C 168.555 99.715,168.115 98.599,168.011 98.210 C 167.667 96.925,166.399 97.118,164.543 98.738 C 162.538 100.487,158.505 100.006,153.292 97.394 C 152.490 96.992,151.833 96.703,151.833 96.750 M249.250 105.853 C 245.084 107.668,240.709 108.024,234.306 107.069 C 229.876 106.408,228.908 106.579,228.000 108.181 L 227.583 108.917 227.635 114.698 C 227.701 122.154,227.368 125.767,226.335 128.829 C 225.930 130.026,225.992 130.036,226.591 128.870 C 226.861 128.346,227.119 127.879,227.166 127.833 C 227.212 127.787,227.388 127.375,227.557 126.917 C 227.726 126.458,228.042 125.606,228.258 125.022 C 228.864 123.385,229.424 120.943,230.166 116.697 C 231.361 109.858,231.176 110.066,236.299 109.819 C 238.105 109.732,240.088 109.587,240.705 109.496 C 241.322 109.405,241.885 109.345,241.955 109.362 C 242.302 109.444,247.000 107.990,247.000 107.801 C 247.000 107.727,247.085 107.667,247.190 107.667 C 247.427 107.667,250.039 105.938,250.328 105.590 C 250.601 105.261,250.622 105.256,249.250 105.853 M150.500 107.070 C 150.500 107.357,153.653 108.705,155.667 109.278 C 157.177 109.708,157.598 109.770,160.333 109.973 C 162.149 110.107,163.896 110.702,164.109 111.258 C 164.160 111.390,164.262 111.461,164.336 111.415 C 164.709 111.185,167.221 116.248,167.543 117.879 C 167.565 117.991,167.624 118.121,167.674 118.167 C 167.724 118.212,168.126 119.112,168.568 120.167 C 169.010 121.221,169.512 122.365,169.683 122.708 C 169.855 123.052,169.940 123.334,169.872 123.336 C 169.805 123.337,169.834 123.394,169.936 123.461 C 170.039 123.528,170.331 123.996,170.585 124.500 C 170.840 125.004,171.337 125.875,171.690 126.435 C 172.044 126.995,172.333 127.532,172.333 127.629 C 172.333 127.726,172.393 127.831,172.465 127.861 C 172.538 127.892,173.073 128.575,173.654 129.379 C 175.061 131.324,175.124 131.314,174.176 129.295 C 172.488 125.704,171.440 121.791,170.765 116.554 C 169.805 109.117,168.642 108.002,161.845 107.998 C 157.423 107.996,152.442 107.577,150.792 107.068 C 150.631 107.018,150.500 107.019,150.500 107.070 M199.137 109.042 C 198.838 109.583,198.764 113.665,199.007 116.250 C 199.419 120.636,199.444 120.212,198.733 120.922 C 197.963 121.693,196.317 122.469,193.909 123.198 L 192.083 123.750 195.083 123.760 C 198.490 123.771,199.928 124.009,201.630 124.845 L 202.677 125.359 203.225 124.878 C 203.908 124.278,205.319 123.743,207.242 123.353 L 208.723 123.053 207.653 122.953 C 205.845 122.783,204.430 122.006,203.852 120.865 C 202.943 119.073,201.833 114.790,201.833 113.079 C 201.833 110.747,199.843 107.767,199.137 109.042 M221.667 141.964 C 220.803 143.631,218.622 147.058,217.348 148.750 C 207.654 161.624,196.350 163.267,184.957 153.457 L 183.997 152.631 184.107 154.815 C 184.189 156.419,184.167 157.000,184.026 157.000 C 183.920 157.000,183.833 156.925,183.833 156.833 C 183.833 156.742,183.776 156.685,183.706 156.708 C 183.525 156.768,180.500 154.972,180.500 154.805 C 180.500 154.729,180.411 154.667,180.303 154.667 C 180.105 154.667,177.944 153.245,177.167 152.604 C 176.938 152.415,177.463 152.972,178.333 153.841 C 179.204 154.711,179.961 155.421,180.015 155.420 C 180.069 155.418,181.041 156.279,182.176 157.333 C 184.039 159.064,184.873 159.850,187.815 162.646 C 188.310 163.116,188.740 163.500,188.772 163.500 C 188.804 163.500,189.172 163.761,189.590 164.080 C 190.942 165.112,193.726 166.486,195.000 166.751 C 195.137 166.779,195.775 166.930,196.417 167.086 C 198.348 167.556,201.688 167.542,203.917 167.054 C 204.925 166.833,205.844 166.643,205.958 166.632 C 206.073 166.620,206.167 166.557,206.167 166.490 C 206.167 166.424,206.360 166.321,206.597 166.262 C 206.833 166.202,207.527 165.915,208.138 165.623 C 208.750 165.331,209.306 165.109,209.375 165.130 C 209.444 165.150,209.500 165.104,209.500 165.028 C 209.500 164.952,209.875 164.647,210.333 164.350 C 211.193 163.792,212.607 162.560,214.917 160.356 C 215.650 159.655,216.947 158.445,217.798 157.666 C 218.650 156.887,219.842 155.746,220.448 155.130 C 221.054 154.515,221.594 154.027,221.650 154.047 C 221.705 154.067,222.877 152.945,224.254 151.555 C 225.631 150.164,226.681 149.076,226.587 149.138 C 226.493 149.200,225.985 149.534,225.458 149.880 C 224.931 150.227,224.068 150.735,223.541 151.009 L 222.583 151.508 222.543 150.962 C 222.521 150.662,222.380 149.183,222.230 147.676 C 221.998 145.340,221.988 144.644,222.164 142.959 C 222.413 140.584,222.398 140.555,221.667 141.964 " stroke="none" fill="#d4d4d4" fill-rule="evenodd"></path><path id="path1" d="M196.667 52.946 C 189.773 54.051,186.243 55.945,179.833 61.975 C 178.504 63.226,176.856 64.774,176.170 65.416 C 175.485 66.058,174.810 66.696,174.670 66.833 C 174.531 66.971,173.405 68.021,172.168 69.167 C 170.931 70.313,169.728 71.438,169.495 71.667 C 169.263 71.896,168.549 72.571,167.909 73.167 C 166.873 74.131,163.568 77.223,160.500 80.098 C 157.750 82.675,157.279 83.096,156.481 83.696 C 155.320 84.569,153.207 85.686,151.500 86.330 C 149.148 87.217,149.238 87.171,149.509 87.342 C 149.923 87.604,151.313 87.517,151.965 87.188 C 155.331 85.491,160.786 86.166,163.683 88.638 C 164.462 89.302,164.511 89.144,163.834 88.150 L 163.335 87.417 164.793 86.000 C 165.594 85.221,167.261 83.646,168.497 82.500 C 169.733 81.354,170.936 80.229,171.170 80.000 C 171.601 79.577,172.049 79.158,176.334 75.167 C 178.928 72.752,181.251 70.571,181.662 70.167 C 181.991 69.844,186.044 66.074,186.923 65.275 C 194.257 58.601,206.077 58.601,213.411 65.275 C 214.274 66.060,218.671 70.171,219.000 70.500 C 219.137 70.637,220.262 71.688,221.499 72.833 C 222.736 73.979,223.937 75.104,224.167 75.333 C 224.397 75.563,225.597 76.688,226.834 77.833 C 228.071 78.979,229.198 80.029,229.338 80.167 C 229.730 80.553,232.027 82.713,234.380 84.909 C 236.220 86.626,236.470 86.920,236.214 87.063 C 235.393 87.520,233.319 89.875,233.541 90.097 C 233.582 90.137,233.952 89.843,234.364 89.442 C 237.167 86.718,241.971 85.736,245.565 87.153 C 246.171 87.392,246.114 87.492,246.314 85.831 C 246.570 83.702,246.715 78.362,246.508 78.667 C 246.415 78.804,246.337 79.068,246.336 79.254 C 246.332 79.808,245.551 82.679,245.121 83.721 L 244.721 84.692 243.319 83.388 C 242.548 82.671,241.802 81.971,241.662 81.834 C 241.137 81.316,235.281 75.833,232.673 73.417 C 232.079 72.867,231.403 72.229,231.171 72.000 C 230.938 71.771,229.737 70.646,228.500 69.500 C 227.263 68.354,226.061 67.229,225.829 67.000 C 225.596 66.771,224.882 66.096,224.243 65.500 C 223.603 64.904,221.993 63.396,220.665 62.149 C 215.371 57.178,212.867 55.504,208.621 54.096 C 205.383 53.022,199.637 52.469,196.667 52.946 M245.104 73.778 L 244.818 74.376 245.201 74.274 C 245.411 74.217,245.677 74.170,245.792 74.169 C 246.085 74.166,246.051 73.943,245.694 73.532 L 245.389 73.180 245.104 73.778 M130.274 75.104 C 129.885 75.919,129.964 75.942,131.324 75.409 C 132.665 74.883,132.754 74.752,131.875 74.607 C 130.729 74.418,130.579 74.464,130.274 75.104 M154.208 78.046 C 152.961 78.675,152.960 78.678,153.960 79.021 C 154.394 79.170,154.872 79.343,155.021 79.406 C 155.242 79.499,155.314 79.374,155.410 78.739 C 155.474 78.309,155.566 77.854,155.615 77.729 C 155.749 77.379,155.352 77.468,154.208 78.046 M241.875 78.451 C 241.351 78.552,241.404 78.670,242.260 79.315 C 243.132 79.972,243.241 79.932,243.085 79.011 C 242.965 78.301,242.873 78.259,241.875 78.451 M266.692 79.517 C 265.979 80.166,266.019 80.190,267.685 80.132 L 269.079 80.083 268.233 79.542 C 267.223 78.895,267.374 78.897,266.692 79.517 M122.763 81.300 C 121.945 81.734,121.251 82.164,121.220 82.256 C 121.172 82.401,123.646 83.092,123.750 82.963 C 123.988 82.672,124.604 80.501,124.448 80.506 C 124.339 80.510,123.581 80.867,122.763 81.300 M274.853 82.261 C 274.451 82.857,274.151 83.367,274.186 83.394 C 274.837 83.893,276.354 84.868,276.401 84.817 C 276.501 84.712,275.809 81.166,275.690 81.172 C 275.631 81.175,275.255 81.665,274.853 82.261 M151.298 83.500 C 151.212 84.086,151.277 84.105,151.824 83.650 C 152.161 83.369,152.190 83.284,151.991 83.158 C 151.568 82.890,151.373 82.987,151.298 83.500 M129.848 85.639 C 129.677 85.959,129.873 86.167,130.347 86.167 C 130.584 86.167,130.527 85.730,130.262 85.510 C 130.071 85.352,129.988 85.378,129.848 85.639 M268.601 87.097 C 268.380 87.673,268.474 87.838,268.910 87.639 C 269.243 87.488,269.289 87.395,269.154 87.143 C 268.951 86.764,268.736 86.746,268.601 87.097 M276.460 92.391 C 275.292 92.863,274.336 93.287,274.335 93.333 C 274.335 93.418,277.374 94.197,277.414 94.123 C 277.426 94.101,277.750 93.554,278.135 92.907 C 279.146 91.203,279.288 91.247,276.460 92.391 M122.575 92.320 C 122.693 92.510,124.770 94.000,124.918 94.000 C 125.011 94.000,126.798 92.698,127.242 92.306 C 127.329 92.230,126.293 92.167,124.940 92.167 C 123.489 92.167,122.519 92.229,122.575 92.320 M129.420 94.426 L 128.590 95.000 130.086 94.999 L 131.583 94.997 130.969 94.415 C 130.632 94.095,130.332 93.837,130.303 93.843 C 130.274 93.848,129.876 94.110,129.420 94.426 M133.504 94.958 C 133.507 95.027,133.823 95.271,134.207 95.500 C 135.139 96.056,138.366 99.272,138.695 99.973 L 138.957 100.529 137.917 102.056 C 136.270 104.474,135.334 106.557,134.541 109.565 C 134.014 111.563,133.874 117.222,134.306 119.000 C 135.484 123.835,137.661 127.904,140.593 130.750 C 141.292 131.429,147.665 137.403,149.660 139.250 C 150.254 139.800,150.930 140.438,151.163 140.667 C 151.395 140.896,152.597 142.021,153.833 143.167 C 155.070 144.313,156.272 145.438,156.504 145.667 C 156.736 145.896,157.413 146.533,158.007 147.083 C 158.601 147.633,160.248 149.171,161.668 150.500 C 163.088 151.829,164.811 153.442,165.496 154.083 C 166.182 154.725,166.857 155.363,166.996 155.501 C 167.136 155.639,168.261 156.689,169.497 157.834 C 170.733 158.980,171.934 160.104,172.165 160.333 C 172.396 160.563,173.597 161.688,174.834 162.833 C 176.071 163.979,177.196 165.029,177.333 165.167 C 177.669 165.502,182.076 169.610,182.917 170.371 C 186.081 173.234,190.421 175.327,195.333 176.356 C 196.996 176.705,203.702 176.661,205.333 176.291 C 210.341 175.155,214.656 172.992,217.757 170.062 C 218.036 169.799,219.273 168.646,220.506 167.500 C 221.739 166.354,222.937 165.229,223.167 165.000 C 223.397 164.771,224.597 163.646,225.834 162.500 C 227.071 161.354,228.198 160.304,228.338 160.167 C 228.757 159.754,231.098 157.558,233.667 155.167 C 236.236 152.775,238.577 150.579,238.996 150.167 C 239.136 150.029,240.262 148.979,241.500 147.833 C 242.737 146.688,243.862 145.637,244.000 145.500 C 244.137 145.362,245.338 144.237,246.667 143.000 C 247.996 141.762,249.198 140.637,249.337 140.500 C 249.649 140.193,251.302 138.647,254.585 135.593 C 262.756 127.991,265.061 124.605,265.994 118.833 C 266.105 118.146,266.265 117.223,266.348 116.783 C 266.543 115.757,266.543 113.743,266.348 112.717 C 266.265 112.277,266.105 111.354,265.993 110.667 C 265.533 107.841,263.973 104.176,262.173 101.698 C 261.619 100.935,261.167 100.240,261.167 100.151 C 261.167 99.785,262.788 98.175,263.875 97.463 C 264.984 96.736,264.752 96.709,263.309 97.397 C 261.916 98.061,260.004 99.305,259.051 100.167 C 258.696 100.487,257.921 101.161,257.328 101.662 C 256.735 102.164,256.212 102.621,256.167 102.677 C 255.619 103.347,250.675 107.111,249.123 108.038 C 247.577 108.962,247.497 109.029,248.083 108.915 C 248.947 108.746,252.018 107.169,253.658 106.051 L 255.232 104.979 255.536 105.364 C 257.888 108.351,259.000 114.901,257.850 119.000 C 256.813 122.696,255.229 125.084,251.495 128.583 C 250.810 129.225,249.087 130.837,247.667 132.167 C 242.990 136.542,242.593 136.914,242.337 137.167 C 242.198 137.304,241.071 138.354,239.834 139.500 C 238.597 140.646,237.395 141.771,237.163 142.000 C 236.930 142.229,236.254 142.867,235.660 143.417 C 235.066 143.967,233.418 145.504,231.998 146.833 C 230.579 148.162,228.856 149.775,228.171 150.417 C 227.485 151.058,226.810 151.696,226.670 151.833 C 226.531 151.971,225.405 153.021,224.168 154.167 C 222.931 155.313,221.728 156.438,221.495 156.667 C 221.263 156.896,220.549 157.571,219.910 158.167 C 219.271 158.762,217.699 160.231,216.416 161.430 C 215.133 162.629,213.746 163.904,213.333 164.264 C 212.921 164.623,212.546 164.960,212.500 165.013 C 212.275 165.275,209.807 166.822,209.000 167.207 C 201.768 170.660,193.093 169.589,187.250 164.522 C 186.883 164.204,185.497 162.925,184.169 161.680 C 182.840 160.435,181.192 158.892,180.506 158.250 C 179.819 157.608,179.143 156.970,179.004 156.832 C 178.864 156.694,177.739 155.644,176.503 154.499 C 175.267 153.354,174.066 152.229,173.835 152.000 C 173.604 151.771,172.403 150.646,171.166 149.500 C 169.929 148.354,168.802 147.304,168.662 147.167 C 168.291 146.802,166.104 144.747,163.250 142.084 C 159.950 139.004,158.315 137.472,158.000 137.167 C 157.859 137.029,157.219 136.429,156.578 135.833 C 155.497 134.829,151.806 131.377,149.095 128.834 C 145.872 125.811,144.747 124.400,143.579 121.917 C 141.508 117.513,141.481 112.055,143.510 107.685 L 144.004 106.620 144.961 106.721 C 145.866 106.817,147.169 107.213,149.158 107.997 C 150.401 108.486,150.345 108.345,149.031 107.673 C 146.161 106.206,144.125 104.450,141.482 101.160 C 139.408 98.580,137.380 96.867,134.615 95.361 C 133.575 94.795,133.498 94.767,133.504 94.958 M267.917 96.000 L 267.438 96.500 268.802 96.500 C 270.372 96.500,270.394 96.481,269.503 95.919 C 268.657 95.384,268.499 95.392,267.917 96.000 M124.327 99.676 C 123.908 100.264,123.887 100.217,124.734 100.568 C 125.557 100.909,125.579 100.878,125.177 99.940 C 124.784 99.024,124.790 99.026,124.327 99.676 M272.625 101.377 C 272.228 102.342,272.232 102.348,273.083 102.058 C 273.735 101.835,274.103 101.500,273.695 101.500 C 273.619 101.500,273.456 101.313,273.333 101.083 C 273.033 100.523,272.965 100.552,272.625 101.377 M123.333 204.417 L 123.333 214.000 126.750 214.000 L 130.167 214.000 130.167 208.626 L 130.167 203.252 135.543 208.626 L 140.919 214.000 145.043 214.000 L 149.167 214.000 149.167 204.417 L 149.167 194.833 145.750 194.833 L 142.333 194.833 142.333 200.169 L 142.333 205.504 137.002 200.169 L 131.670 194.833 127.502 194.833 L 123.333 194.833 123.333 204.417 M153.206 197.544 L 150.500 200.254 150.500 207.127 L 150.500 214.000 153.917 214.000 L 157.333 214.000 157.333 211.917 L 157.333 209.833 162.750 209.833 L 168.167 209.833 168.167 211.917 L 168.167 214.000 171.583 214.000 L 175.000 214.000 175.000 207.127 L 175.000 200.254 172.294 197.544 L 169.587 194.833 162.750 194.833 L 155.913 194.833 153.206 197.544 M176.167 201.627 L 176.167 208.420 178.960 211.210 L 181.754 214.000 186.503 214.000 L 191.252 214.000 196.043 209.207 L 200.833 204.415 200.833 199.624 L 200.833 194.833 197.333 194.833 L 193.833 194.833 193.833 198.210 L 193.833 201.586 190.457 204.960 C 186.308 209.105,186.584 209.012,184.538 206.955 L 183.167 205.576 183.167 200.205 L 183.167 194.833 179.667 194.833 L 176.167 194.833 176.167 201.627 M202.000 204.417 L 202.000 214.000 213.583 214.000 L 225.167 214.000 225.167 211.167 L 225.167 208.333 217.000 208.333 L 208.833 208.333 208.833 207.750 L 208.833 207.167 217.000 207.167 L 225.167 207.167 225.167 204.333 L 225.167 201.500 217.000 201.500 L 208.833 201.500 208.833 200.917 L 208.833 200.333 217.000 200.333 L 225.167 200.333 225.167 197.583 L 225.167 194.833 213.583 194.833 L 202.000 194.833 202.000 204.417 M226.500 204.417 L 226.500 214.000 238.083 214.000 L 249.667 214.000 249.667 211.167 L 249.667 208.333 241.500 208.333 L 233.333 208.333 233.333 207.750 L 233.333 207.167 241.500 207.167 L 249.667 207.167 249.667 204.333 L 249.667 201.500 241.500 201.500 L 233.333 201.500 233.333 200.917 L 233.333 200.333 241.500 200.333 L 249.667 200.333 249.667 197.583 L 249.667 194.833 238.083 194.833 L 226.500 194.833 226.500 204.417 M250.833 204.417 L 250.833 214.000 254.333 214.000 L 257.833 214.000 257.833 208.709 L 257.833 203.419 263.126 208.709 L 268.419 214.000 272.543 214.000 L 276.667 214.000 276.667 204.417 L 276.667 194.833 273.250 194.833 L 269.833 194.833 269.833 200.124 L 269.833 205.415 264.541 200.124 L 259.248 194.833 255.041 194.833 L 250.833 194.833 250.833 204.417 M166.705 201.788 C 167.948 203.026,168.167 203.324,168.167 203.788 L 168.167 204.333 162.750 204.333 L 157.333 204.333 157.333 203.795 C 157.333 203.341,157.561 203.027,158.788 201.795 L 160.243 200.333 162.743 200.333 L 165.243 200.333 166.705 201.788 " stroke="none" fill="#8cdc1c" fill-rule="evenodd"></path><path id="path2" d="M153.304 57.731 C 151.004 58.260,149.333 59.649,148.122 62.038 C 147.776 62.720,147.363 63.421,147.204 63.597 C 147.045 63.773,146.205 64.854,145.339 66.000 C 144.473 67.146,143.418 68.533,142.995 69.083 C 138.740 74.614,135.379 81.385,133.674 87.861 C 132.718 91.493,132.792 91.679,136.333 94.512 C 137.296 95.283,138.196 96.003,138.333 96.113 C 138.471 96.224,139.186 96.795,139.922 97.384 C 140.712 98.016,141.796 99.128,142.571 100.102 C 144.275 102.244,146.934 104.859,148.515 105.946 C 150.516 107.322,155.527 108.055,162.308 107.962 C 168.536 107.876,169.924 109.286,170.833 116.621 C 171.695 123.575,174.051 130.499,176.377 132.917 C 176.878 133.438,178.827 137.295,180.754 141.583 C 181.372 142.958,182.084 144.534,182.335 145.085 C 183.132 146.828,183.351 147.689,183.610 150.083 L 183.863 152.417 184.473 152.969 C 197.074 164.374,210.258 161.149,220.322 144.200 C 222.415 140.674,222.629 140.136,222.754 138.083 C 222.918 135.376,223.909 132.576,225.140 131.337 C 226.841 129.627,227.925 122.036,227.518 114.695 C 227.085 106.879,227.829 106.015,234.150 106.997 C 242.828 108.346,249.947 106.876,253.500 103.001 C 253.546 102.951,254.146 102.424,254.833 101.830 C 255.521 101.236,256.121 100.708,256.167 100.656 C 256.552 100.221,260.683 97.071,262.415 95.891 C 265.136 94.038,265.107 94.091,264.746 91.537 C 263.337 81.585,262.217 78.614,257.667 72.751 C 255.490 69.945,253.015 65.754,252.007 63.167 C 250.417 59.083,248.293 57.775,243.250 57.776 C 240.729 57.776,239.488 58.084,237.962 59.090 C 237.620 59.316,237.133 59.502,236.879 59.505 C 235.580 59.520,235.500 59.885,235.500 65.797 C 235.500 71.589,235.495 71.567,236.756 71.567 C 237.654 71.567,238.833 70.275,238.833 69.292 C 238.833 68.713,239.144 68.500,239.992 68.498 C 240.857 68.496,241.913 68.228,243.567 67.593 C 244.200 67.349,244.811 67.186,244.925 67.230 C 245.356 67.396,247.001 72.053,247.491 74.496 C 247.811 76.091,247.987 87.147,247.725 89.117 L 247.631 89.818 246.357 89.183 C 244.621 88.318,244.259 88.194,242.947 88.012 C 239.913 87.593,236.085 89.130,234.085 91.571 C 232.606 93.375,231.423 93.619,228.417 92.739 C 224.529 91.601,220.173 92.715,216.538 95.777 C 215.278 96.838,214.311 97.414,213.417 97.637 C 210.070 98.472,209.720 98.481,208.111 97.769 L 207.220 97.375 207.122 95.313 C 206.981 92.346,207.153 91.061,208.067 88.252 C 208.305 87.520,208.500 86.781,208.500 86.611 C 208.500 86.300,208.973 85.538,209.551 84.917 C 211.040 83.317,211.775 78.990,210.656 78.411 L 210.160 78.155 210.288 76.786 C 210.778 71.565,210.343 69.335,208.472 67.468 C 204.078 63.082,199.392 62.235,194.131 64.876 C 190.561 66.668,189.414 68.853,189.080 74.500 C 188.932 76.989,188.928 77.000,188.136 77.000 C 186.638 77.000,186.184 78.245,186.756 80.781 C 187.515 84.142,188.216 85.366,189.507 85.585 C 190.278 85.715,190.237 85.437,189.995 88.917 C 189.659 93.729,189.223 94.847,187.163 96.169 C 184.959 97.583,185.591 97.735,177.375 93.821 C 174.027 92.226,171.596 91.925,168.726 92.751 C 167.412 93.128,167.173 93.055,165.667 91.820 C 160.666 87.718,156.376 86.648,152.583 88.554 C 151.310 89.194,148.486 88.930,147.917 88.117 C 147.513 87.539,147.621 87.023,148.395 85.849 C 150.821 82.167,151.806 77.868,151.839 70.824 C 151.850 68.467,152.347 66.525,153.217 65.439 L 153.600 64.961 155.013 65.448 C 156.791 66.061,156.795 66.063,157.108 66.845 C 157.723 68.384,158.464 68.643,161.867 68.513 L 163.150 68.464 163.124 69.132 C 163.077 70.302,163.271 70.392,165.643 70.289 C 168.569 70.163,168.395 70.433,168.500 65.871 C 168.634 60.067,169.093 60.653,163.236 59.163 C 157.548 57.716,154.978 57.346,153.304 57.731 M247.754 95.326 C 247.578 95.612,244.951 97.291,243.583 97.991 C 240.743 99.447,237.370 100.170,235.000 99.831 C 234.313 99.732,233.440 99.609,233.061 99.556 C 232.058 99.418,231.288 99.742,229.833 100.917 L 228.540 101.961 229.300 100.356 C 229.719 99.473,230.188 98.337,230.343 97.833 C 230.850 96.182,232.129 96.227,234.029 97.961 C 235.053 98.895,235.324 99.000,236.728 99.000 C 239.470 99.000,244.549 97.338,247.095 95.608 C 247.802 95.128,247.904 95.084,247.754 95.326 M155.064 98.143 C 159.950 100.090,163.079 100.261,164.583 98.666 C 165.549 97.641,167.373 97.000,167.784 97.542 C 167.871 97.656,168.038 98.087,168.155 98.500 C 168.273 98.912,168.732 100.022,169.177 100.967 C 170.060 102.843,170.114 102.815,168.362 101.391 C 166.962 100.253,166.285 100.071,164.669 100.396 C 160.886 101.158,156.701 100.081,152.401 97.239 C 150.603 96.050,150.301 95.645,151.951 96.637 C 152.674 97.072,154.074 97.749,155.064 98.143 M200.492 109.292 C 201.413 110.406,201.712 111.244,201.858 113.116 C 202.046 115.518,203.239 119.847,204.060 121.103 C 204.742 122.147,206.120 122.790,208.083 122.981 L 209.250 123.095 208.223 123.221 C 206.110 123.480,203.634 124.372,202.960 125.119 C 202.674 125.435,202.650 125.431,201.543 124.893 C 199.778 124.034,198.216 123.776,194.795 123.775 L 191.840 123.774 193.712 123.212 C 197.871 121.963,199.465 120.829,199.256 119.271 C 198.527 113.854,198.685 108.667,199.579 108.667 C 199.835 108.667,200.160 108.889,200.492 109.292 M123.333 185.917 L 123.333 189.667 124.750 189.667 L 126.167 189.667 126.167 188.333 L 126.167 187.000 129.250 187.000 L 132.333 187.000 132.333 185.917 L 132.333 184.833 129.250 184.833 C 127.306 184.833,126.167 184.772,126.167 184.667 C 126.167 184.562,127.306 184.500,129.250 184.500 L 132.333 184.500 132.333 183.333 L 132.333 182.167 127.833 182.167 L 123.333 182.167 123.333 185.917 M138.000 185.917 L 138.000 189.667 139.333 189.667 L 140.667 189.667 140.667 185.917 L 140.667 182.167 139.333 182.167 L 138.000 182.167 138.000 185.917 M146.333 183.333 L 146.333 184.500 147.917 184.500 L 149.500 184.500 149.500 187.083 L 149.500 189.667 150.833 189.667 L 152.167 189.667 152.167 187.083 L 152.167 184.500 153.750 184.500 L 155.333 184.500 155.333 183.333 L 155.333 182.167 150.833 182.167 L 146.333 182.167 146.333 183.333 M161.000 185.917 L 161.000 189.667 162.417 189.667 L 163.833 189.667 163.833 187.750 C 163.833 186.696,163.872 185.833,163.918 185.833 C 163.965 185.833,164.866 186.696,165.920 187.750 L 167.837 189.667 169.418 189.667 L 171.000 189.667 171.000 185.917 L 171.000 182.167 169.667 182.167 L 168.333 182.167 168.333 184.206 L 168.333 186.245 166.289 184.206 L 164.245 182.167 162.623 182.167 L 161.000 182.167 161.000 185.917 M176.667 185.917 L 176.667 189.667 181.167 189.667 L 185.667 189.667 185.667 188.583 L 185.667 187.500 182.583 187.500 C 179.954 187.500,179.500 187.463,179.500 187.250 C 179.500 187.037,179.954 187.000,182.583 187.000 L 185.667 187.000 185.667 185.917 L 185.667 184.833 182.583 184.833 C 180.639 184.833,179.500 184.772,179.500 184.667 C 179.500 184.562,180.639 184.500,182.583 184.500 L 185.667 184.500 185.667 183.333 L 185.667 182.167 181.167 182.167 L 176.667 182.167 176.667 185.917 M192.370 183.213 L 191.333 184.259 191.333 185.629 L 191.333 187.000 194.354 187.000 C 197.020 187.000,197.350 187.029,197.167 187.250 C 196.997 187.454,196.443 187.500,194.146 187.500 L 191.333 187.500 191.333 188.583 L 191.333 189.667 195.046 189.667 L 198.760 189.667 199.796 188.621 L 200.833 187.574 200.833 186.204 L 200.833 184.833 197.823 184.833 C 195.859 184.833,194.849 184.775,194.917 184.667 C 194.979 184.566,196.168 184.500,197.927 184.500 L 200.833 184.500 200.833 183.333 L 200.833 182.167 197.120 182.167 L 193.407 182.167 192.370 183.213 M207.537 183.213 L 206.500 184.259 206.500 185.629 L 206.500 187.000 209.520 187.000 C 212.186 187.000,212.516 187.029,212.333 187.250 C 212.164 187.454,211.610 187.500,209.313 187.500 L 206.500 187.500 206.500 188.583 L 206.500 189.667 210.164 189.667 L 213.827 189.667 214.914 188.580 L 216.000 187.494 216.000 186.164 L 216.000 184.833 212.990 184.833 C 211.026 184.833,210.016 184.775,210.083 184.667 C 210.146 184.566,211.335 184.500,213.093 184.500 L 216.000 184.500 216.000 183.333 L 216.000 182.167 212.287 182.167 L 208.574 182.167 207.537 183.213 M227.000 185.917 L 227.000 189.667 228.546 189.667 L 230.091 189.667 231.417 188.333 L 232.743 187.000 234.083 188.333 L 235.424 189.667 236.962 189.667 L 238.500 189.667 238.500 185.917 L 238.500 182.167 237.167 182.167 L 235.833 182.167 235.833 184.205 L 235.833 186.243 234.250 184.667 L 232.667 183.090 231.167 184.583 L 229.667 186.076 229.667 184.122 L 229.667 182.167 228.333 182.167 L 227.000 182.167 227.000 185.917 M244.167 185.917 L 244.167 189.667 245.500 189.667 L 246.833 189.667 246.833 185.917 L 246.833 182.167 245.500 182.167 L 244.167 182.167 244.167 185.917 M252.500 183.333 L 252.500 184.500 254.083 184.500 L 255.667 184.500 255.667 187.083 L 255.667 189.667 257.083 189.667 L 258.500 189.667 258.500 187.083 L 258.500 184.500 260.000 184.500 L 261.500 184.500 261.500 183.333 L 261.500 182.167 257.000 182.167 L 252.500 182.167 252.500 183.333 M267.167 185.917 L 267.167 189.667 268.583 189.667 L 270.000 189.667 270.000 188.333 L 270.000 187.000 272.000 187.000 L 274.000 187.000 274.000 188.333 L 274.000 189.667 275.333 189.667 L 276.667 189.667 276.667 185.917 L 276.667 182.167 275.333 182.167 L 274.000 182.167 274.000 183.500 L 274.000 184.833 272.000 184.833 L 270.000 184.833 270.000 183.500 L 270.000 182.167 268.583 182.167 L 267.167 182.167 267.167 185.917 " stroke="none" fill="#fcfcfc" fill-rule="evenodd"></path><path id="path3" d="M236.460 99.118 C 236.668 99.158,236.968 99.156,237.127 99.115 C 237.286 99.073,237.117 99.040,236.750 99.042 C 236.383 99.044,236.253 99.078,236.460 99.118 M163.460 107.951 C 163.668 107.991,163.968 107.990,164.127 107.948 C 164.286 107.906,164.117 107.874,163.750 107.875 C 163.383 107.877,163.253 107.911,163.460 107.951 M238.044 109.786 C 238.297 109.825,238.672 109.824,238.877 109.784 C 239.082 109.744,238.875 109.713,238.417 109.714 C 237.958 109.716,237.791 109.748,238.044 109.786 M160.711 110.120 C 160.964 110.158,161.339 110.157,161.544 110.117 C 161.749 110.078,161.542 110.046,161.083 110.048 C 160.625 110.049,160.457 110.081,160.711 110.120 M227.381 111.583 C 227.382 112.042,227.415 112.209,227.453 111.956 C 227.491 111.703,227.490 111.328,227.451 111.123 C 227.411 110.918,227.380 111.125,227.381 111.583 M222.057 144.917 C 222.058 145.650,222.087 145.929,222.122 145.537 C 222.157 145.145,222.157 144.545,222.121 144.204 C 222.085 143.863,222.057 144.183,222.057 144.917 M226.248 149.503 C 226.191 149.596,226.055 149.621,225.947 149.559 C 225.839 149.497,225.808 149.510,225.878 149.587 C 225.948 149.665,225.765 149.977,225.470 150.281 C 225.176 150.585,224.971 150.833,225.016 150.833 C 225.061 150.833,225.428 150.496,225.833 150.083 C 226.238 149.671,226.521 149.333,226.461 149.333 C 226.402 149.333,226.306 149.410,226.248 149.503 M222.542 150.917 C 222.544 151.283,222.578 151.414,222.618 151.206 C 222.658 150.999,222.656 150.699,222.615 150.540 C 222.573 150.380,222.540 150.550,222.542 150.917 M178.500 154.083 C 178.811 154.404,179.103 154.667,179.149 154.667 C 179.195 154.667,178.978 154.404,178.667 154.083 C 178.356 153.762,178.064 153.500,178.018 153.500 C 177.972 153.500,178.189 153.762,178.500 154.083 M220.833 154.750 C 220.428 155.162,220.135 155.500,220.181 155.500 C 220.226 155.500,220.595 155.162,221.000 154.750 C 221.405 154.337,221.699 154.000,221.653 154.000 C 221.607 154.000,221.238 154.337,220.833 154.750 M180.500 155.917 C 180.811 156.237,181.103 156.500,181.149 156.500 C 181.195 156.500,180.978 156.237,180.667 155.917 C 180.356 155.596,180.064 155.333,180.018 155.333 C 179.972 155.333,180.189 155.596,180.500 155.917 M217.824 157.625 L 217.250 158.250 217.875 157.676 C 218.457 157.141,218.577 157.000,218.449 157.000 C 218.422 157.000,218.140 157.281,217.824 157.625 M215.161 160.125 L 214.250 161.083 215.208 160.172 C 216.099 159.326,216.243 159.167,216.119 159.167 C 216.093 159.167,215.662 159.598,215.161 160.125 M184.917 160.000 C 185.275 160.367,185.605 160.667,185.651 160.667 C 185.697 160.667,185.441 160.367,185.083 160.000 C 184.725 159.633,184.395 159.333,184.349 159.333 C 184.303 159.333,184.559 159.633,184.917 160.000 M212.740 162.375 L 212.250 162.917 212.792 162.427 C 213.297 161.971,213.410 161.833,213.281 161.833 C 213.252 161.833,213.009 162.077,212.740 162.375 M187.667 162.583 C 187.978 162.904,188.270 163.167,188.315 163.167 C 188.361 163.167,188.144 162.904,187.833 162.583 C 187.522 162.262,187.230 162.000,187.185 162.000 C 187.139 162.000,187.356 162.262,187.667 162.583 " stroke="none" fill="#dcdddc" fill-rule="evenodd"></path><path id="path4" d="M235.958 99.951 C 236.165 99.991,236.502 99.991,236.708 99.951 C 236.915 99.911,236.746 99.879,236.333 99.879 C 235.921 99.879,235.752 99.911,235.958 99.951 M176.821 152.543 C 177.294 153.078,177.278 153.071,177.278 152.750 C 177.278 152.612,177.240 152.538,177.194 152.584 C 177.148 152.630,176.954 152.537,176.764 152.377 C 176.511 152.165,176.526 152.210,176.821 152.543 M213.575 153.042 L 212.917 153.750 213.625 153.091 C 214.284 152.478,214.410 152.333,214.284 152.333 C 214.257 152.333,213.938 152.652,213.575 153.042 " stroke="none" fill="#e4e4e4" fill-rule="evenodd"></path></g></svg>